<svg xmlns="http://www.w3.org/2000/svg" width="200" height="200" viewBox="0 0 200 200" fill="none">
<rect width="200" height="200" fill="#212121"/>
<path d="M43.9806 89.3891C32.0187 89.6503 22.9021 99.0536 23.0008 110.866C23.0879 121.697 32.7619 132.372 45.7864 131.437C56.0818 130.7 65.4365 121.819 65.3319 110.291C65.2274 98.7634 55.3908 89.1511 43.9806 89.3891ZM44.1025 122.434C37.6512 122.434 32.3787 116.92 32.4019 110.245C32.3721 108.681 32.655 107.127 33.234 105.675C33.813 104.222 34.6765 102.899 35.7738 101.785C36.8711 100.67 38.18 99.7857 39.6238 99.1836C41.0677 98.5815 42.6172 98.2737 44.1817 98.2784C45.7461 98.283 47.2938 98.6 48.734 99.2106C50.1742 99.8213 51.4779 100.713 52.5686 101.835C53.6592 102.956 54.5148 104.283 55.0852 105.74C55.6556 107.196 55.9293 108.751 55.8902 110.314C55.925 116.891 50.5306 122.446 44.0851 122.434H44.1025Z" fill="#F4F4F4"/>
<path d="M156.928 130.503H166.126V90.3125H156.928V130.503Z" fill="#F4F4F4"/>
<path d="M167.313 68V80.7119H175.524C175.826 80.7119 176.104 80.7119 176.522 80.6713V68H167.313Z" fill="#F4F4F4"/>
<path d="M90.3074 122.434C83.8561 122.434 78.5836 116.92 78.6068 110.245C78.641 107.14 79.8837 104.171 82.0713 101.967C84.2589 99.7628 87.2194 98.4972 90.3248 98.4385C92.1304 98.4511 93.9086 98.881 95.5204 99.6946C97.1321 100.508 98.5337 101.683 99.6156 103.129L108.436 99.6458C104.644 93.4002 97.7749 89.1977 90.1681 89.3776C78.2062 89.6388 69.0896 99.0422 69.1883 110.854C69.2754 121.686 78.9494 132.36 91.974 131.426C95.4804 131.131 98.8609 129.981 101.818 128.075C104.776 126.169 107.22 123.567 108.935 120.496L100.307 116.659C99.2752 118.398 97.8137 119.842 96.0626 120.854C94.3115 121.865 92.3297 122.41 90.3074 122.434V122.434Z" fill="#F4F4F4"/>
<path d="M134.759 89.2504C132.289 89.1932 129.848 89.7963 127.689 90.9973C125.53 92.1984 123.731 93.9538 122.478 96.0823V68H113.187L113.187 130.468H122.478C122.478 129.836 122.478 107.68 122.478 107.68C122.478 101.097 125.062 96.2797 131.345 96.2797C139.439 96.2797 139.474 104.772 139.474 109.63C139.474 116.497 139.474 122.046 139.474 128.913V130.532H148.869C148.869 130.259 148.916 130.05 148.916 129.836C148.916 122.029 149.015 114.227 148.881 106.42C148.794 101.01 147.749 89.2504 134.759 89.2504Z" fill="#F4F4F4"/>
</svg>
